<svg version="1.1" id="Layer_1" xmlns="http://www.w3.org/2000/svg" xmlns:xlink="http://www.w3.org/1999/xlink" x="0px" y="0px"
	 width="100%" viewBox="0 0 389 115" enable-background="new 0 0 389 115" xml:space="preserve">
<path fill="#FFFDFD" opacity="1.000000" stroke="none" 
	d="
M259.000000,116.000000 
	C172.666687,116.000000 86.833374,116.000000 1.000046,116.000000 
	C1.000031,77.666695 1.000031,39.333393 1.000015,1.000067 
	C130.666611,1.000044 260.333221,1.000044 389.999878,1.000022 
	C389.999908,39.333263 389.999908,77.666527 389.999939,115.999893 
	C346.500000,116.000000 303.000000,116.000000 259.000000,116.000000 
M101.571953,55.830372 
	C101.822960,55.622295 101.969315,55.356571 102.116402,54.547493 
	C102.264580,54.220062 102.514107,54.017445 103.620224,53.973274 
	C104.123970,53.989151 104.627724,54.005028 105.474060,54.528584 
	C106.313942,54.051476 107.153816,53.574371 108.813133,53.090687 
	C110.177528,53.119728 111.541924,53.148773 112.983871,53.966740 
	C115.894836,57.266430 120.744247,56.878235 123.970703,53.108009 
	C126.952400,53.124935 129.934097,53.141857 132.997223,53.944462 
	C135.856537,57.291069 139.465927,56.930233 141.553299,52.885643 
	C141.711044,52.573971 141.868790,52.262299 142.033234,51.437515 
	C142.042007,51.095520 142.050797,50.753529 142.576355,50.200363 
	C143.001663,49.873474 143.426971,49.546581 143.926590,48.538960 
	C143.920959,48.310764 143.915314,48.082573 143.851440,47.038849 
	C142.195038,46.692009 140.544342,46.078182 138.881271,46.042549 
	C129.517166,45.841927 120.150078,45.780350 110.091324,45.164165 
	C112.029228,42.428879 113.967133,39.693588 116.566124,37.039700 
	C117.085976,37.411003 117.605827,37.782310 118.098434,38.504505 
	C118.098434,38.504505 118.101059,38.856445 118.024101,39.428535 
	C117.996681,39.812237 117.969254,40.195934 117.319527,40.857510 
	C117.182251,41.093502 117.044975,41.329498 116.907700,41.565495 
	C117.159615,41.707157 117.411278,41.972126 117.663483,41.972645 
	C126.400177,41.990650 135.137360,42.018921 143.872757,41.908554 
	C144.520767,41.900368 145.155884,40.870541 145.941559,39.732510 
	C145.976273,39.535275 146.011002,39.338039 146.480255,38.891907 
	C146.772888,38.686680 146.935196,38.406086 146.998184,37.472279 
	C146.987045,37.279709 146.975906,37.087135 147.523239,36.673477 
	C148.025070,36.097797 148.526886,35.522121 149.030060,34.515709 
	C149.030060,34.515709 149.033035,34.084988 149.728806,33.995525 
	C150.555817,33.589931 151.382828,33.184338 152.209824,32.778744 
	C143.101730,32.001534 134.297211,31.933750 125.496506,32.086761 
	C124.388168,32.106033 123.300034,33.287014 121.690514,34.141232 
	C121.454727,34.413998 121.218948,34.686760 121.016518,34.984653 
	C121.016518,34.984653 121.023438,35.025845 120.513130,35.005558 
	C120.343597,35.019855 120.174057,35.034153 119.991661,34.235836 
	C119.933067,33.425381 119.874474,32.614929 119.895760,31.925310 
	C119.895760,31.925310 119.767639,31.857735 120.420624,31.704416 
	C120.944565,30.796492 121.468506,29.888567 122.203796,28.339178 
	C124.912720,24.885937 127.621643,21.432695 130.682724,17.805874 
	C130.892883,17.627134 131.015366,17.400908 131.022095,17.051794 
	C131.022095,17.051794 131.101181,17.036943 131.528580,16.778116 
	C131.792404,16.544165 131.935806,16.251253 132.222458,15.201480 
	C131.692444,14.510504 131.189529,13.247561 130.628036,13.220953 
	C126.853821,13.042093 123.067146,13.125819 118.707306,13.279682 
	C118.512062,13.611447 118.316818,13.943213 117.956329,14.802470 
	C117.579277,15.203239 117.202225,15.604009 116.420822,16.221439 
	C116.173225,16.430872 116.036819,16.697252 115.806175,17.664541 
	C112.849564,21.386145 109.892952,25.107748 106.576935,28.363052 
	C105.703148,27.904072 104.829361,27.445091 104.155815,26.334734 
	C107.282280,22.173431 110.408745,18.012131 114.080170,13.125488 
	C109.433029,13.125488 105.941429,12.890594 102.506668,13.230322 
	C100.926491,13.386614 98.958443,14.280583 98.011780,15.497685 
	C77.221947,42.226650 56.550972,69.048065 35.844963,95.867744 
	C41.693974,99.712044 47.760181,98.826691 53.241341,94.253479 
	C53.953415,94.543343 54.665485,94.833214 55.331264,95.773872 
	C55.910252,96.308731 56.489239,96.843590 57.736904,97.806183 
	C61.475819,97.626572 65.214729,97.446960 69.507774,96.909164 
	C70.102623,96.263954 70.697464,95.618736 71.638718,94.779594 
	C71.846619,94.598053 71.976295,94.371696 72.160187,93.533958 
	C72.692467,92.989006 73.224754,92.444046 74.487473,91.873962 
	C74.989021,90.911880 75.490570,89.949799 76.162796,88.377861 
	C76.843628,87.578773 77.524460,86.779686 78.582245,85.765114 
	C78.811111,85.567497 78.952202,85.319862 79.177994,84.400253 
	C79.880508,83.591133 80.583031,82.782013 81.636856,81.777992 
	C81.847473,81.594902 81.980064,81.366501 82.003296,81.027000 
	C82.003296,81.027000 82.075699,81.035400 82.648903,80.987595 
	C83.716560,81.009224 84.784218,81.030861 85.953545,81.522560 
	C85.953545,81.522560 86.000679,82.001221 86.022522,82.612297 
	C86.365654,83.059196 86.708794,83.506104 87.890892,83.989769 
	C89.945465,83.624626 92.000046,83.259476 94.058342,82.334763 
	C94.056099,81.961739 94.053864,81.588707 94.641968,81.082367 
	C95.086319,80.736572 95.530663,80.390778 95.990395,79.485588 
	C95.986374,79.299103 95.982346,79.112610 96.498528,78.449036 
	C93.721680,77.993378 90.944824,77.537727 87.517899,76.999496 
	C86.999992,76.646248 86.482086,76.292999 86.154831,75.301201 
	C87.838745,73.197639 89.522659,71.094078 91.597832,68.781136 
	C91.835724,68.578369 91.970337,68.321480 92.185005,67.396591 
	C92.885368,66.593109 93.585732,65.789627 94.653580,64.807037 
	C94.874893,64.621941 95.000008,64.385857 95.203911,63.472954 
	C96.173576,62.325653 97.143250,61.178352 98.535088,59.791512 
	C98.794907,59.570084 98.943321,59.289680 99.156250,58.358097 
	C99.565529,57.898224 99.974808,57.438347 100.707901,56.814411 
	C100.900635,56.650547 101.020363,56.444294 101.033371,56.067402 
	C101.033371,56.067402 101.165245,56.053539 101.571953,55.830372 
M46.454243,77.833099 
	C46.345413,77.541939 46.236584,77.250786 45.272514,76.922867 
	C43.162235,77.427750 41.051956,77.932625 38.934433,78.894043 
	C38.945343,79.198280 38.948532,79.502602 38.582600,80.288132 
	C40.075310,80.118721 41.568020,79.949303 43.062096,79.326126 
	C43.072227,79.023575 43.070259,78.721107 43.814857,78.247787 
	C44.587238,78.178062 45.359619,78.108337 46.454243,77.833099 
M30.644064,50.101494 
	C30.772142,50.006073 30.931950,49.932720 31.018440,49.808372 
	C31.089939,49.705582 31.074823,49.542538 31.098087,49.406193 
	C29.119072,49.284367 27.140055,49.162544 25.161037,49.040718 
	C25.423891,49.510262 25.686745,49.979805 25.626638,50.818642 
	C25.475597,51.272476 25.324558,51.726307 25.651672,52.689121 
	C27.448957,52.419262 29.246243,52.149403 30.850382,51.475281 
	C30.588245,51.112160 30.326107,50.749043 30.644064,50.101494 
M50.016750,62.872086 
	C45.887558,62.886288 41.756794,62.848618 37.630978,62.973972 
	C37.052013,62.991562 36.497307,63.807743 35.940350,64.778580 
	C35.942314,65.128128 35.944283,65.477669 35.629063,66.437477 
	C41.696972,66.620781 47.764801,66.807938 53.833851,66.937874 
	C53.901127,66.939316 53.984375,66.194809 54.066235,65.316673 
	C54.081841,64.995697 54.089626,64.674522 54.003769,63.688808 
	C53.687565,63.390575 53.371361,63.092342 52.953934,62.213654 
	C52.562542,61.633110 52.171150,61.052570 51.369877,59.864063 
	C51.151405,61.338409 51.044060,62.062828 50.016750,62.872086 
M152.648987,81.647575 
	C153.080322,79.741219 153.511658,77.834862 153.939117,75.355804 
	C153.606079,74.952713 153.273041,74.549622 152.015900,74.045197 
	C146.914688,74.031021 141.808334,73.889023 136.715897,74.093422 
	C135.458054,74.143913 134.245392,75.320129 132.989151,76.662613 
	C132.651596,78.436234 132.314041,80.209854 132.105743,82.735603 
	C134.366165,84.726082 136.435791,85.113663 138.933075,82.015335 
	C140.617706,82.010834 142.302322,82.006340 144.139221,82.774643 
	C146.961731,84.608253 149.674545,85.333008 152.648987,81.647575 
M146.094559,26.157644 
	C146.054108,25.780935 146.013657,25.404224 145.819031,24.224878 
	C140.396240,24.011805 134.973816,23.785465 129.549164,23.643740 
	C129.369141,23.639038 129.166748,24.491932 128.501617,25.238472 
	C128.283630,25.739832 128.065628,26.241192 127.538635,27.377634 
	C136.114914,27.377634 144.691193,27.377634 153.267471,27.377634 
	C153.264801,27.159332 153.262131,26.941029 153.259476,26.722727 
	C150.892075,26.722727 148.524689,26.722727 146.094559,26.157644 
M22.918226,35.714195 
	C22.914927,36.135956 22.911627,36.557716 22.236462,37.100807 
	C21.819254,38.061848 21.402048,39.022892 20.494089,40.499062 
	C20.939318,40.990807 21.378553,41.904499 21.830673,41.910919 
	C28.456633,42.005005 35.085857,42.045387 41.709576,41.892937 
	C42.516644,41.874359 43.296295,40.664551 44.579071,39.771896 
	C44.734795,38.859871 44.890518,37.947842 45.489014,36.726795 
	C45.333736,36.152767 45.178463,35.578739 45.269993,34.294086 
	C44.900967,33.526939 44.542942,32.096752 44.161301,32.090416 
	C36.320324,31.960367 28.476656,31.992640 19.219637,31.992640 
	C21.223930,33.659786 22.079147,34.371147 22.918226,35.714195 
M22.149300,26.186390 
	C20.003338,26.350004 17.857376,26.513617 15.711415,26.677231 
	C15.760093,27.118153 15.808769,27.559072 15.857447,27.999994 
	C25.228434,27.999994 34.599686,28.031803 43.970032,27.954443 
	C44.990467,27.946018 46.005699,27.307821 47.112556,26.218866 
	C46.535938,25.148890 45.990356,23.169840 45.377922,23.148930 
	C38.937103,22.929039 32.479248,22.880522 26.043388,23.169632 
	C24.986504,23.217112 24.013371,25.128986 22.149300,26.186390 
M289.818726,64.998749 
	C289.818726,64.998749 289.747803,64.801582 290.590576,64.921432 
	C291.439606,64.960602 292.288635,64.999771 293.063904,65.756180 
	C292.909088,66.682991 292.754303,67.609795 292.364899,69.941025 
	C295.751526,68.789062 298.378845,67.895386 301.602814,66.740120 
	C302.420380,66.489059 303.237915,66.237991 304.272491,66.163628 
	C304.272491,66.163628 304.215698,66.437645 304.087616,67.260483 
	C304.693237,68.508034 305.298889,69.755592 306.145844,71.320381 
	C306.145844,71.320381 306.127594,71.718567 306.122894,72.217972 
	C306.206757,72.564186 306.406555,72.819748 306.963379,73.518089 
	C306.964417,73.713211 306.965454,73.908325 306.983002,74.404488 
	C307.033051,74.608688 307.143616,74.771912 307.965790,75.575981 
	C311.542114,75.842514 315.118408,76.109055 318.768341,76.381073 
	C318.768341,75.286003 318.911804,74.744064 318.747437,74.321999 
	C313.864319,61.781857 309.009766,49.229599 303.944275,36.763123 
	C303.473389,35.604237 301.721741,34.471054 300.411560,34.255001 
	C297.979828,33.853996 295.418945,33.974194 292.944458,34.213989 
	C291.845398,34.320499 290.203949,34.993412 289.862823,35.836014 
	C284.512817,49.049816 279.335052,62.333366 273.645996,76.800316 
	C278.478882,76.101089 282.282166,75.550835 286.670959,74.928482 
	C286.735352,74.270668 286.799713,73.612854 286.903839,72.269073 
	C287.054840,71.839256 287.205811,71.409439 287.713531,70.724869 
	C287.915253,70.486832 287.995392,70.213173 287.962128,69.429977 
	C287.962128,69.429977 288.184418,69.011337 288.892059,68.840256 
	C289.189880,67.490807 289.487671,66.141357 289.818726,64.998749 
M257.419983,73.377220 
	C260.642578,78.304337 265.158508,75.551636 270.035980,76.094177 
	C266.196686,70.893135 262.979584,66.534958 259.639099,62.009655 
	C261.335266,61.043865 262.668488,60.410473 263.865692,59.580784 
	C268.492249,56.374470 270.777435,50.470200 269.544647,45.112995 
	C268.247009,39.473949 263.937317,34.740524 258.404053,34.395294 
	C250.652863,33.911682 242.848938,34.273228 234.765182,34.273228 
	C234.765182,48.362034 234.765182,62.081478 234.765182,75.837738 
	C238.312943,75.837738 241.533752,75.837738 245.293945,75.837738 
	C245.293945,64.765411 245.293945,54.043179 245.293945,43.213566 
	C248.671814,43.213566 251.696854,42.593803 254.255814,43.419121 
	C256.139404,44.026608 258.636749,46.540878 258.613708,48.173782 
	C258.590881,49.792023 255.964767,51.731190 254.074936,52.835773 
	C252.877472,53.535671 250.938263,52.966526 249.321762,52.966526 
	C248.438324,58.571529 248.669846,63.289085 252.736664,67.212601 
	C254.392166,68.809746 255.575821,70.895988 257.419983,73.377220 
M199.877136,76.193504 
	C202.565140,73.663467 205.253143,71.133430 207.941147,68.603394 
	C207.639236,68.141106 207.337341,67.678825 207.035446,67.216537 
	C201.161804,67.216537 195.288177,67.216537 188.449738,67.216537 
	C197.040466,55.963932 205.033112,45.494732 213.708771,34.130878 
	C204.811417,34.130878 197.062988,34.131783 189.314545,34.130589 
	C183.319168,34.129662 180.268326,36.566063 178.307739,43.209457 
	C183.158630,43.209457 187.902878,43.209457 193.471466,43.209457 
	C184.947083,54.397091 176.905197,64.951492 168.331024,76.204498 
	C179.355057,76.204498 189.174637,76.204498 199.877136,76.193504 
M47.644764,49.508171 
	C47.864567,50.486809 48.084370,51.465450 48.304173,52.444088 
	C49.252003,51.716358 50.587929,51.190987 51.088875,50.230244 
	C57.585232,37.771194 66.735893,27.607328 77.577141,18.804268 
	C78.943756,17.694582 79.549873,15.648329 80.851158,13.459323 
	C70.848022,13.459323 62.109123,13.459323 53.272339,13.459323 
	C51.404926,25.426352 49.586662,37.078461 47.644764,49.508171 
M327.873840,34.152229 
	C323.666046,34.973053 323.271057,36.088871 326.239532,40.002853 
	C333.983337,50.213142 342.267365,60.048618 349.457794,70.630280 
	C353.586609,76.706390 358.412781,76.840004 365.329803,75.548676 
	C364.179626,73.289749 363.503662,71.297211 362.299072,69.704460 
	C354.568970,59.483467 346.524414,49.493679 339.018829,39.112911 
	C336.258698,35.295429 333.353882,33.310986 327.873840,34.152229 
M115.407211,97.177391 
	C117.827835,97.177391 120.248451,97.177391 122.617760,97.177391 
	C124.730080,83.667603 126.715302,70.970703 128.700531,58.273804 
	C128.311417,58.049728 127.922318,57.825653 127.533218,57.601578 
	C126.618530,58.436554 125.370789,59.100254 124.839890,60.132599 
	C118.412979,72.629951 109.237228,82.807816 98.611023,91.830009 
	C97.339325,92.909744 96.631950,94.654129 94.929413,97.177895 
	C102.503548,97.177895 108.468384,97.177895 115.407211,97.177391 
M217.957108,49.504089 
	C217.957108,58.272041 217.957108,67.039993 217.957108,75.995552 
	C221.600159,75.995552 224.849350,75.995552 228.150726,75.995552 
	C228.150726,61.933800 228.150726,48.152908 228.150726,34.407513 
	C224.588821,34.407513 221.501053,34.407513 217.958389,34.407513 
	C217.958389,39.290043 217.958389,43.898052 217.957108,49.504089 
M325.131592,45.491447 
	C325.131592,55.617771 325.131592,65.744095 325.131592,75.877594 
	C328.412323,75.877594 331.621674,75.877594 334.407349,75.877594 
	C336.995575,64.013252 334.696930,53.871170 325.131592,45.491447 
M354.113525,36.856121 
	C354.107880,39.355679 354.466034,41.920357 354.032318,44.343285 
	C352.339905,53.798275 359.087189,58.851860 364.331726,65.906250 
	C364.331726,54.663452 364.331726,44.597790 364.331726,33.259121 
	C360.566864,34.247456 357.352509,35.091267 354.113525,36.856121 
M135.437195,44.996140 
	C138.460648,44.996140 141.484116,44.996140 144.507568,44.996140 
	C144.474899,44.565037 144.442230,44.133934 144.409546,43.702831 
	C134.208023,43.702831 124.006493,43.702831 113.804962,43.702831 
	C113.811783,44.133774 113.818596,44.564720 113.825409,44.995663 
	C120.702988,44.995663 127.580566,44.995663 135.437195,44.996140 
M16.983829,30.140148 
	C26.667002,30.297365 36.350143,30.457016 46.033775,30.577005 
	C46.130020,30.578199 46.232769,30.054699 46.474419,29.379644 
	C36.516766,29.379644 26.692646,29.379644 16.983829,30.140148 
M134.560730,30.999704 
	C140.865173,30.999704 147.169601,30.999704 153.474045,30.999704 
	C153.453110,30.569555 153.432175,30.139404 153.411240,29.709255 
	C143.898361,29.709255 134.385468,29.709255 124.872589,29.709255 
	C124.872963,30.139290 124.873344,30.569326 124.873718,30.999361 
	C127.778870,30.999361 130.684021,30.999361 134.560730,30.999704 
M25.736298,44.999809 
	C30.565100,44.706829 35.530735,45.627338 40.122513,43.618011 
	C33.616497,43.618011 27.110485,43.618011 20.604471,43.618011 
	C20.609488,43.980255 20.614506,44.342495 20.619524,44.704739 
	C22.018368,44.803123 23.417213,44.901505 25.736298,44.999809 
M135.547485,72.422455 
	C141.138077,72.422455 146.728668,72.422455 152.319260,72.422455 
	C152.321106,72.149506 152.322952,71.876564 152.324814,71.603615 
	C146.751083,71.603615 141.177353,71.603615 135.547485,72.422455 
M44.404823,70.998642 
	C41.764366,70.998642 39.123913,70.998642 36.483456,70.998642 
	C36.513138,71.473747 36.542816,71.948860 36.572498,72.423965 
	C41.170452,72.423965 45.768402,72.423965 50.366356,72.423965 
	C50.370190,71.948959 50.374023,71.473946 50.377857,70.998940 
	C48.692059,70.998940 47.006260,70.998940 44.404823,70.998642 
M100.082367,67.820518 
	C100.746620,66.129265 101.410881,64.438011 102.075134,62.746761 
	C100.747498,63.110420 98.910385,63.064381 98.211395,63.933578 
	C97.157982,65.243538 95.579552,67.595764 100.082367,67.820518 
z"/>
<path fill="#CE1B29" opacity="1.000000" stroke="none" 
	d="
M119.284515,13.124452 
	C123.067146,13.125819 126.853821,13.042093 130.628036,13.220953 
	C131.189529,13.247561 131.692444,14.510504 131.846802,15.649214 
	C131.347809,16.410280 131.224503,16.723612 131.101181,17.036943 
	C131.101181,17.036943 131.022095,17.051794 130.841919,17.160332 
	C130.395767,17.433233 130.285385,17.670095 130.330566,17.979454 
	C127.621643,21.432695 124.912720,24.885937 121.812187,28.789879 
	C120.869598,30.112965 120.318619,30.985352 119.767639,31.857735 
	C119.767639,31.857735 119.895760,31.925310 119.566849,32.019321 
	C118.126984,33.728325 117.016014,35.343315 115.905045,36.958305 
	C113.967133,39.693588 112.029228,42.428879 110.445801,45.469517 
	C110.800270,45.774868 110.892952,45.823750 110.627457,45.488289 
	C109.909126,45.390469 109.456299,45.628117 108.758392,45.975746 
	C108.374931,46.401070 108.236565,46.716408 108.059898,47.036797 
	C108.021606,47.041855 108.044106,47.115761 107.842834,47.183693 
	C107.366348,47.419926 107.253815,47.663414 107.072372,48.174370 
	C106.543808,48.877419 106.246841,49.388191 105.659546,50.044708 
	C104.534470,51.440186 103.699730,52.689911 102.864990,53.939640 
	C102.514107,54.017445 102.264580,54.220062 101.834229,54.874084 
	C101.254395,55.408432 101.125458,55.692722 101.165245,56.053539 
	C101.165245,56.053539 101.033371,56.067402 100.861702,56.185005 
	C100.437187,56.459602 100.335205,56.684887 100.384079,56.978470 
	C99.974808,57.438347 99.565529,57.898224 98.828110,58.744759 
	C98.370949,59.431301 98.241936,59.731178 98.112930,60.031055 
	C97.143250,61.178352 96.173576,62.325653 94.908234,63.851055 
	C94.330444,64.406761 94.221626,64.659088 94.286095,64.986145 
	C93.585732,65.789627 92.885368,66.593109 91.870903,67.783356 
	C91.248535,68.361832 91.131790,68.635300 91.206581,68.990517 
	C89.522659,71.094078 87.838745,73.197639 85.768051,75.767677 
	C84.279411,77.834564 83.177551,79.434982 82.075699,81.035400 
	C82.075699,81.035400 82.003296,81.027000 81.812347,81.124878 
	C81.343521,81.398499 81.231567,81.648552 81.285545,81.972893 
	C80.583031,82.782013 79.880508,83.591133 78.868210,84.783325 
	C78.252319,85.356087 78.134613,85.627487 78.205284,85.980598 
	C77.524460,86.779686 76.843628,87.578773 75.788071,88.811127 
	C74.861237,90.129295 74.309135,91.014191 73.757034,91.899094 
	C73.224754,92.444046 72.692467,92.989006 71.886627,93.878143 
	C71.333549,94.399033 71.226639,94.649429 71.292313,94.973526 
	C70.697464,95.618736 70.102623,96.263954 68.776505,97.036179 
	C64.386230,97.234955 60.727230,97.306702 57.068230,97.378448 
	C56.489239,96.843590 55.910252,96.308731 55.639912,95.287819 
	C62.470818,86.331802 68.979286,77.851173 75.518486,69.394310 
	C85.980392,55.864372 96.462677,42.350197 106.936340,28.829353 
	C109.892952,25.107748 112.849564,21.386145 116.135468,17.257271 
	C116.772736,16.648363 116.892876,16.366623 116.825172,16.004778 
	C117.202225,15.604009 117.579277,15.203239 118.307602,14.434336 
	C118.867424,13.752286 119.075966,13.438369 119.284515,13.124452 
z"/>
<path fill="#CE1A27" opacity="1.000000" stroke="none" 
	d="
M52.842804,93.576187 
	C47.760181,98.826691 41.693974,99.712044 35.844963,95.867744 
	C56.550972,69.048065 77.221947,42.226650 98.011780,15.497685 
	C98.958443,14.280583 100.926491,13.386614 102.506668,13.230322 
	C105.941429,12.890594 109.433029,13.125488 114.080170,13.125488 
	C110.408745,18.012131 107.282280,22.173431 103.753387,26.803976 
	C99.095192,33.131493 94.966263,39.087433 90.549988,44.822090 
	C85.585068,51.269176 80.243523,57.426163 75.276733,63.871876 
	C67.703598,73.699989 60.311672,83.667732 52.842804,93.576187 
z"/>
<path fill="#CD1825" opacity="1.000000" stroke="none" 
	d="
M257.197083,73.068466 
	C255.575821,70.895988 254.392166,68.809746 252.736664,67.212601 
	C248.669846,63.289085 248.438324,58.571529 249.321762,52.966526 
	C250.938263,52.966526 252.877472,53.535671 254.074936,52.835773 
	C255.964767,51.731190 258.590881,49.792023 258.613708,48.173782 
	C258.636749,46.540878 256.139404,44.026608 254.255814,43.419121 
	C251.696854,42.593803 248.671814,43.213566 245.293945,43.213566 
	C245.293945,54.043179 245.293945,64.765411 245.293945,75.837738 
	C241.533752,75.837738 238.312943,75.837738 234.765182,75.837738 
	C234.765182,62.081478 234.765182,48.362034 234.765182,34.273228 
	C242.848938,34.273228 250.652863,33.911682 258.404053,34.395294 
	C263.937317,34.740524 268.247009,39.473949 269.544647,45.112995 
	C270.777435,50.470200 268.492249,56.374470 263.865692,59.580784 
	C262.668488,60.410473 261.335266,61.043865 259.639099,62.009655 
	C262.979584,66.534958 266.196686,70.893135 270.035980,76.094177 
	C265.158508,75.551636 260.642578,78.304337 257.197083,73.068466 
z"/>
<path fill="#CD1C29" opacity="1.000000" stroke="none" 
	d="
M199.435684,76.199005 
	C189.174637,76.204498 179.355057,76.204498 168.331024,76.204498 
	C176.905197,64.951492 184.947083,54.397091 193.471466,43.209457 
	C187.902878,43.209457 183.158630,43.209457 178.307739,43.209457 
	C180.268326,36.566063 183.319168,34.129662 189.314545,34.130589 
	C197.062988,34.131783 204.811417,34.130878 213.708771,34.130878 
	C205.033112,45.494732 197.040466,55.963932 188.449738,67.216537 
	C195.288177,67.216537 201.161804,67.216537 207.035446,67.216537 
	C207.337341,67.678825 207.639236,68.141106 207.941147,68.603394 
	C205.253143,71.133430 202.565140,73.663467 199.435684,76.199005 
z"/>
<path fill="#CD1B28" opacity="1.000000" stroke="none" 
	d="
M286.085419,75.000580 
	C282.282166,75.550835 278.478882,76.101089 273.645996,76.800316 
	C279.335052,62.333366 284.512817,49.049816 289.862823,35.836014 
	C290.203949,34.993412 291.845398,34.320499 292.944458,34.213989 
	C295.418945,33.974194 297.979828,33.853996 300.411560,34.255001 
	C301.721741,34.471054 303.473389,35.604237 303.944275,36.763123 
	C309.009766,49.229599 313.864319,61.781857 318.747437,74.321999 
	C318.911804,74.744064 318.768341,75.286003 318.768341,76.381073 
	C315.118408,76.109055 311.542114,75.842514 307.697479,75.074051 
	C307.365448,74.326660 307.211243,74.170433 306.966522,74.103447 
	C306.965454,73.908325 306.964417,73.713211 306.861450,72.996384 
	C306.548889,72.222649 306.338226,71.970612 306.127594,71.718567 
	C306.127594,71.718567 306.145844,71.320381 306.038574,70.808853 
	C305.359406,69.010765 304.787567,67.724205 304.215698,66.437645 
	C304.215698,66.437645 304.272491,66.163628 304.163513,65.694229 
	C301.724915,58.754498 299.395325,52.284168 296.620483,44.577213 
	C294.013458,52.248966 291.880646,58.525276 289.747803,64.801582 
	C289.747803,64.801582 289.818726,64.998749 289.544983,65.106949 
	C288.908966,66.480545 288.546692,67.745941 288.184418,69.011337 
	C288.184418,69.011337 287.962128,69.429977 287.759155,69.781097 
	C287.301849,70.370461 287.235382,70.652931 287.356812,70.979622 
	C287.205811,71.409439 287.054840,71.839256 286.644287,72.785553 
	C286.284943,73.868202 286.185181,74.434387 286.085419,75.000580 
z"/>
<path fill="#CE1C2A" opacity="1.000000" stroke="none" 
	d="
M47.706581,49.119370 
	C49.586662,37.078461 51.404926,25.426352 53.272339,13.459323 
	C62.109123,13.459323 70.848022,13.459323 80.851158,13.459323 
	C79.549873,15.648329 78.943756,17.694582 77.577141,18.804268 
	C66.735893,27.607328 57.585232,37.771194 51.088875,50.230244 
	C50.587929,51.190987 49.252003,51.716358 48.304173,52.444088 
	C48.084370,51.465450 47.864567,50.486809 47.706581,49.119370 
z"/>
<path fill="#CD1B28" opacity="1.000000" stroke="none" 
	d="
M328.291443,34.149193 
	C333.353882,33.310986 336.258698,35.295429 339.018829,39.112911 
	C346.524414,49.493679 354.568970,59.483467 362.299072,69.704460 
	C363.503662,71.297211 364.179626,73.289749 365.329803,75.548676 
	C358.412781,76.840004 353.586609,76.706390 349.457794,70.630280 
	C342.267365,60.048618 333.983337,50.213142 326.239532,40.002853 
	C323.271057,36.088871 323.666046,34.973053 328.291443,34.149193 
z"/>
<path fill="#CE1926" opacity="1.000000" stroke="none" 
	d="
M114.920219,97.177643 
	C108.468384,97.177895 102.503548,97.177895 94.929413,97.177895 
	C96.631950,94.654129 97.339325,92.909744 98.611023,91.830009 
	C109.237228,82.807816 118.412979,72.629951 124.839890,60.132599 
	C125.370789,59.100254 126.618530,58.436554 127.533218,57.601578 
	C127.922318,57.825653 128.311417,58.049728 128.700531,58.273804 
	C126.715302,70.970703 124.730080,83.667603 122.617760,97.177391 
	C120.248451,97.177391 117.827835,97.177391 114.920219,97.177643 
z"/>
<path fill="#CC212D" opacity="1.000000" stroke="none" 
	d="
M217.957748,49.005074 
	C217.958389,43.898052 217.958389,39.290043 217.958389,34.407513 
	C221.501053,34.407513 224.588821,34.407513 228.150726,34.407513 
	C228.150726,48.152908 228.150726,61.933800 228.150726,75.995552 
	C224.849350,75.995552 221.600159,75.995552 217.957108,75.995552 
	C217.957108,67.039993 217.957108,58.272041 217.957748,49.005074 
z"/>
<path fill="#CD1F2C" opacity="1.000000" stroke="none" 
	d="
M325.462830,45.611168 
	C334.696930,53.871170 336.995575,64.013252 334.407349,75.877594 
	C331.621674,75.877594 328.412323,75.877594 325.131592,75.877594 
	C325.131592,65.744095 325.131592,55.617771 325.462830,45.611168 
z"/>
<path fill="#CF2935" opacity="1.000000" stroke="none" 
	d="
M354.125854,36.395599 
	C357.352509,35.091267 360.566864,34.247456 364.331726,33.259121 
	C364.331726,44.597790 364.331726,54.663452 364.331726,65.906250 
	C359.087189,58.851860 352.339905,53.798275 354.032318,44.343285 
	C354.466034,41.920357 354.107880,39.355679 354.125854,36.395599 
z"/>
<path fill="#FFF3F5" opacity="1.000000" stroke="none" 
	d="
M53.042072,93.914833 
	C60.311672,83.667732 67.703598,73.699989 75.276733,63.871876 
	C80.243523,57.426163 85.585068,51.269176 90.549988,44.822090 
	C94.966263,39.087433 99.095192,33.131493 103.653259,27.129665 
	C104.829361,27.445091 105.703148,27.904072 106.756638,28.596203 
	C96.462677,42.350197 85.980392,55.864372 75.518486,69.394310 
	C68.979286,77.851173 62.470818,86.331802 55.663059,94.962418 
	C54.665485,94.833214 53.953415,94.543343 53.042072,93.914833 
z"/>
<path fill="#FEEAEC" opacity="1.000000" stroke="none" 
	d="
M290.169189,64.861511 
	C291.880646,58.525276 294.013458,52.248966 296.620483,44.577213 
	C299.395325,52.284168 301.724915,58.754498 304.054993,65.605881 
	C303.237915,66.237991 302.420380,66.489059 301.047577,66.629051 
	C300.070496,65.439766 299.778229,64.283875 299.191254,63.304626 
	C298.572968,62.273048 297.673065,61.410236 296.896210,60.473694 
	C295.949249,61.426510 294.959625,62.341805 294.074097,63.348644 
	C293.658539,63.821125 293.443542,64.470009 293.137665,65.038940 
	C292.288635,64.999771 291.439606,64.960602 290.169189,64.861511 
z"/>
<path fill="#EBEBEB" opacity="1.000000" stroke="none" 
	d="
M143.986954,82.001839 
	C142.302322,82.006340 140.617706,82.010834 138.072296,82.008255 
	C135.466507,81.995285 133.721497,81.989380 131.976486,81.983475 
	C132.314041,80.209854 132.651596,78.436234 133.466614,76.301300 
	C139.296051,75.959404 144.648026,75.978821 150.000000,76.425095 
	C149.999390,78.559464 149.998779,80.266968 149.569336,81.981415 
	C147.422653,81.992851 145.704803,81.997345 143.986954,82.001839 
z"/>
<path fill="#EBEBEB" opacity="1.000000" stroke="none" 
	d="
M23.001530,26.179197 
	C24.013371,25.128986 24.986504,23.217112 26.043388,23.169632 
	C32.479248,22.880522 38.937103,22.929039 45.377922,23.148930 
	C45.990356,23.169840 46.535938,25.148890 46.597191,26.576935 
	C38.388390,26.683069 30.694960,26.431133 23.001530,26.179197 
z"/>
<path fill="#EBEBEB" opacity="1.000000" stroke="none" 
	d="
M45.046238,37.035816 
	C44.890518,37.947842 44.734795,38.859871 43.855301,39.887001 
	C35.749302,39.996044 28.367071,39.989990 20.984840,39.983932 
	C21.402048,39.022892 21.819254,38.061848 23.051174,37.050308 
	C30.926004,37.011806 37.986122,37.023811 45.046238,37.035816 
z"/>
<path fill="#BEBFBE" opacity="1.000000" stroke="none" 
	d="
M22.934364,35.082512 
	C22.079147,34.371147 21.223930,33.659786 19.219637,31.992640 
	C28.476656,31.992640 36.320324,31.960367 44.161301,32.090416 
	C44.542942,32.096752 44.900967,33.526939 44.675674,34.651161 
	C37.032360,35.032997 29.983362,35.057755 22.934364,35.082512 
z"/>
<path fill="#B4B3B4" opacity="1.000000" stroke="none" 
	d="
M110.792145,45.723110 
	C120.150078,45.780350 129.517166,45.841927 138.881271,46.042549 
	C140.544342,46.078182 142.195038,46.692009 143.421082,47.472786 
	C132.394104,47.864201 121.797478,47.821674 111.205521,47.445427 
	C111.104446,46.682384 110.998703,46.253067 110.892952,45.823750 
	C110.892952,45.823750 110.800270,45.774868 110.792145,45.723110 
z"/>
<path fill="#C5C5C5" opacity="1.000000" stroke="none" 
	d="
M134.947662,44.995903 
	C127.580566,44.995663 120.702988,44.995663 113.825409,44.995663 
	C113.818596,44.564720 113.811783,44.133774 113.804962,43.702831 
	C124.006493,43.702831 134.208023,43.702831 144.409546,43.702831 
	C144.442230,44.133934 144.474899,44.565037 144.507568,44.996140 
	C141.484116,44.996140 138.460648,44.996140 134.947662,44.995903 
z"/>
<path fill="#EBEBEB" opacity="1.000000" stroke="none" 
	d="
M142.059586,50.411533 
	C142.050797,50.753529 142.042007,51.095520 141.558884,51.711601 
	C130.699982,51.915279 120.315445,51.844872 109.936600,51.517239 
	C109.928841,50.916641 109.915367,50.573269 110.364571,50.182308 
	C121.238022,50.226994 131.648804,50.319263 142.059586,50.411533 
z"/>
<path fill="#B3B3B3" opacity="1.000000" stroke="none" 
	d="
M122.202538,33.929745 
	C123.300034,33.287014 124.388168,32.106033 125.496506,32.086761 
	C134.297211,31.933750 143.101730,32.001534 152.209824,32.778744 
	C151.382828,33.184338 150.555817,33.589931 148.911560,33.982666 
	C139.463730,33.956451 130.833130,33.943096 122.202538,33.929745 
z"/>
<path fill="#C6C6C6" opacity="1.000000" stroke="none" 
	d="
M16.926178,29.759895 
	C26.692646,29.379644 36.516766,29.379644 46.474419,29.379644 
	C46.232769,30.054699 46.130020,30.578199 46.033775,30.577005 
	C36.350143,30.457016 26.667002,30.297365 16.926178,29.759895 
z"/>
<path fill="#C5C6C6" opacity="1.000000" stroke="none" 
	d="
M134.074951,30.999533 
	C130.684021,30.999361 127.778870,30.999361 124.873718,30.999361 
	C124.873344,30.569326 124.872963,30.139290 124.872589,29.709255 
	C134.385468,29.709255 143.898361,29.709255 153.411240,29.709255 
	C153.432175,30.139404 153.453110,30.569555 153.474045,30.999704 
	C147.169601,30.999704 140.865173,30.999704 134.074951,30.999533 
z"/>
<path fill="#C7323C" opacity="1.000000" stroke="none" 
	d="
M293.100769,65.397560 
	C293.443542,64.470009 293.658539,63.821125 294.074097,63.348644 
	C294.959625,62.341805 295.949249,61.426510 296.896210,60.473694 
	C297.673065,61.410236 298.572968,62.273048 299.191254,63.304626 
	C299.778229,64.283875 300.070496,65.439766 300.749268,66.759842 
	C298.378845,67.895386 295.751526,68.789062 292.364899,69.941025 
	C292.754303,67.609795 292.909088,66.682991 293.100769,65.397560 
z"/>
<path fill="#EBEBEB" opacity="1.000000" stroke="none" 
	d="
M146.045715,39.140804 
	C146.011002,39.338039 145.976273,39.535275 145.496124,40.127014 
	C136.014404,40.540890 126.978119,40.560261 117.941833,40.579636 
	C117.969254,40.195934 117.996681,39.812237 118.519653,39.188931 
	C128.025375,39.013153 137.035538,39.076977 146.045715,39.140804 
z"/>
<path fill="#EBEBEB" opacity="1.000000" stroke="none" 
	d="
M146.964767,36.894562 
	C146.975906,37.087135 146.987045,37.279709 146.517517,37.742104 
	C137.026169,37.988983 128.015488,37.966042 119.123062,37.730892 
	C119.451920,37.257961 119.717468,37.078564 120.241669,36.889759 
	C120.708183,36.632797 120.884872,36.400932 121.445435,36.093956 
	C130.265213,36.354511 138.614990,36.624538 146.964767,36.894562 
z"/>
<path fill="#D8D8D8" opacity="1.000000" stroke="none" 
	d="
M20.739464,40.241497 
	C28.367071,39.989990 35.749302,39.996044 43.610092,40.004456 
	C43.296295,40.664551 42.516644,41.874359 41.709576,41.892937 
	C35.085857,42.045387 28.456633,42.005005 21.830673,41.910919 
	C21.378553,41.904499 20.939318,40.990807 20.739464,40.241497 
z"/>
<path fill="#E1E1E1" opacity="1.000000" stroke="none" 
	d="
M22.926296,35.398354 
	C29.983362,35.057755 37.032360,35.032997 44.552273,35.006477 
	C45.178463,35.578739 45.333736,36.152767 45.267624,36.881306 
	C37.986122,37.023811 30.926004,37.011806 23.387108,36.989639 
	C22.911627,36.557716 22.914927,36.135956 22.926296,35.398354 
z"/>
<path fill="#C6C6C6" opacity="1.000000" stroke="none" 
	d="
M25.276178,44.999847 
	C23.417213,44.901505 22.018368,44.803123 20.619524,44.704739 
	C20.614506,44.342495 20.609488,43.980255 20.604471,43.618011 
	C27.110485,43.618011 33.616497,43.618011 40.122513,43.618011 
	C35.530735,45.627338 30.565100,44.706829 25.276178,44.999847 
z"/>
<path fill="#B2B2B2" opacity="1.000000" stroke="none" 
	d="
M150.000000,75.998230 
	C144.648026,75.978821 139.296051,75.959404 133.478027,75.959427 
	C134.245392,75.320129 135.458054,74.143913 136.715897,74.093422 
	C141.808334,73.889023 146.914688,74.031021 152.490097,74.377472 
	C152.950073,75.085251 152.935852,75.460754 152.556763,75.862251 
	C151.461273,75.924904 150.730637,75.961571 150.000000,75.998230 
z"/>
<path fill="#B2B2B2" opacity="1.000000" stroke="none" 
	d="
M22.575415,26.182793 
	C30.694960,26.431133 38.388390,26.683069 46.552582,26.948368 
	C46.005699,27.307821 44.990467,27.946018 43.970032,27.954443 
	C34.599686,28.031803 25.228434,27.999994 15.857447,27.999994 
	C15.808769,27.559072 15.760093,27.118153 15.711415,26.677231 
	C17.857376,26.513617 20.003338,26.350004 22.575415,26.182793 
z"/>
<path fill="#C6C6C6" opacity="1.000000" stroke="none" 
	d="
M135.575562,72.013031 
	C141.177353,71.603615 146.751083,71.603615 152.324814,71.603615 
	C152.322952,71.876564 152.321106,72.149506 152.319260,72.422455 
	C146.728668,72.422455 141.138077,72.422455 135.575562,72.013031 
z"/>
<path fill="#D8D8D8" opacity="1.000000" stroke="none" 
	d="
M127.847626,26.742550 
	C128.065628,26.241192 128.283630,25.739832 129.208069,25.109474 
	C135.267426,24.996157 140.620316,25.011835 145.973206,25.027515 
	C146.013657,25.404224 146.054108,25.780935 145.651154,26.538242 
	C139.421036,26.860077 133.634323,26.801311 127.847626,26.742550 
z"/>
<path fill="#EAECEC" opacity="1.000000" stroke="none" 
	d="
M35.946251,65.827217 
	C35.944283,65.477669 35.942314,65.128128 36.407204,64.454422 
	C42.612564,64.204567 48.351078,64.278862 54.089588,64.353157 
	C54.089626,64.674522 54.081841,64.995697 53.593529,65.627449 
	C47.395969,65.901222 41.671108,65.864220 35.946251,65.827217 
z"/>
<path fill="#B2B2B2" opacity="1.000000" stroke="none" 
	d="
M142.317963,50.305946 
	C131.648804,50.319263 121.238022,50.226994 110.438751,49.879982 
	C110.349556,49.352184 110.648865,49.079121 111.415878,48.871330 
	C122.539825,49.030968 133.196060,49.125328 143.852280,49.219688 
	C143.426971,49.546581 143.001663,49.873474 142.317963,50.305946 
z"/>
<path fill="#B2B2B2" opacity="1.000000" stroke="none" 
	d="
M109.930901,51.774460 
	C120.315445,51.844872 130.699982,51.915279 141.555542,51.968155 
	C141.868790,52.262299 141.711044,52.573971 140.862701,52.952168 
	C137.753342,53.065388 135.334564,53.112083 132.915802,53.158783 
	C129.934097,53.141857 126.952400,53.124935 123.065414,53.065510 
	C119.075523,53.074612 115.990921,53.126213 112.906319,53.177814 
	C111.541924,53.148773 110.177528,53.119728 108.383400,52.814751 
	C107.959610,52.352600 107.965546,52.166382 108.299126,51.952301 
	C109.061478,51.874447 109.496185,51.824451 109.930901,51.774460 
z"/>
<path fill="#F6EBEC" opacity="1.000000" stroke="none" 
	d="
M145.896118,24.626198 
	C140.620316,25.011835 135.267426,24.996157 129.444656,24.962774 
	C129.166748,24.491932 129.369141,23.639038 129.549164,23.643740 
	C134.973816,23.785465 140.396240,24.011805 145.896118,24.626198 
z"/>
<path fill="#EBEBEB" opacity="1.000000" stroke="none" 
	d="
M143.889435,48.879326 
	C133.196060,49.125328 122.539825,49.030968 111.463310,48.611244 
	C111.095627,48.116974 111.148239,47.948059 111.200844,47.779148 
	C121.797478,47.821674 132.394104,47.864201 143.450211,47.880554 
	C143.915314,48.082573 143.920959,48.310764 143.889435,48.879326 
z"/>
<path fill="#B2B3B2" opacity="1.000000" stroke="none" 
	d="
M117.630676,40.718571 
	C126.978119,40.560261 136.014404,40.540890 145.423843,40.418591 
	C145.155884,40.870541 144.520767,41.900368 143.872757,41.908554 
	C135.137360,42.018921 126.400177,41.990650 117.663483,41.972645 
	C117.411278,41.972126 117.159615,41.707157 116.907700,41.565495 
	C117.044975,41.329498 117.182251,41.093502 117.630676,40.718571 
z"/>
<path fill="#C7C7C7" opacity="1.000000" stroke="none" 
	d="
M44.862640,70.998795 
	C47.006260,70.998940 48.692059,70.998940 50.377857,70.998940 
	C50.374023,71.473946 50.370190,71.948959 50.366356,72.423965 
	C45.768402,72.423965 41.170452,72.423965 36.572498,72.423965 
	C36.542816,71.948860 36.513138,71.473747 36.483456,70.998642 
	C39.123913,70.998642 41.764366,70.998642 44.862640,70.998795 
z"/>
<path fill="#B2B3B2" opacity="1.000000" stroke="none" 
	d="
M127.693130,27.060091 
	C133.634323,26.801311 139.421036,26.860077 145.682526,26.820786 
	C148.524689,26.722727 150.892075,26.722727 153.259476,26.722727 
	C153.262131,26.941029 153.264801,27.159332 153.267471,27.377634 
	C144.691193,27.377634 136.114914,27.377634 127.693130,27.060091 
z"/>
<path fill="#B2B2B2" opacity="1.000000" stroke="none" 
	d="
M147.244003,36.784019 
	C138.614990,36.624538 130.265213,36.354511 121.453293,35.823925 
	C121.001915,35.384193 121.012672,35.205017 121.023438,35.025845 
	C121.023438,35.025845 121.016518,34.984653 121.469742,34.987991 
	C130.958206,34.976368 139.993454,34.961403 149.028702,34.946442 
	C148.526886,35.522121 148.025070,36.097797 147.244003,36.784019 
z"/>
<path fill="#E2E2E1" opacity="1.000000" stroke="none" 
	d="
M112.945099,53.572277 
	C115.990921,53.126213 119.075523,53.074612 122.619308,53.090839 
	C120.744247,56.878235 115.894836,57.266430 112.945099,53.572277 
z"/>
<path fill="#B4B3B4" opacity="1.000000" stroke="none" 
	d="
M119.004799,37.943100 
	C128.015488,37.966042 137.026169,37.988983 146.501999,38.031025 
	C146.935196,38.406086 146.772888,38.686680 146.262985,39.016357 
	C137.035538,39.076977 128.025375,39.013153 118.558136,38.902885 
	C118.101059,38.856445 118.098434,38.504505 118.332825,38.281815 
	C118.567207,38.059128 119.004799,37.943100 119.004799,37.943100 
z"/>
<path fill="#EBEBEA" opacity="1.000000" stroke="none" 
	d="
M149.029388,34.731071 
	C139.993454,34.961403 130.958206,34.976368 121.453064,34.975430 
	C121.218948,34.686760 121.454727,34.413998 121.946526,34.035484 
	C130.833130,33.943096 139.463730,33.956451 148.563690,34.027397 
	C149.033035,34.084988 149.030060,34.515709 149.029388,34.731071 
z"/>
<path fill="#FAEBEC" opacity="1.000000" stroke="none" 
	d="
M99.713440,67.881798 
	C95.579552,67.595764 97.157982,65.243538 98.211395,63.933578 
	C98.910385,63.064381 100.747498,63.110420 102.075134,62.746761 
	C101.410881,64.438011 100.746620,66.129265 99.713440,67.881798 
z"/>
<path fill="#E2E2E1" opacity="1.000000" stroke="none" 
	d="
M132.956512,53.551620 
	C135.334564,53.112083 137.753342,53.065388 140.623093,53.077850 
	C139.465927,56.930233 135.856537,57.291069 132.956512,53.551620 
z"/>
<path fill="#EBEBEA" opacity="1.000000" stroke="none" 
	d="
M150.000000,76.425095 
	C150.730637,75.961571 151.461273,75.924904 152.810104,75.912659 
	C153.599854,75.934204 153.771423,75.931351 153.942993,75.928497 
	C153.511658,77.834862 153.080322,79.741219 151.986267,81.822876 
	C150.881760,81.990265 150.439957,81.982368 149.998169,81.974472 
	C149.998779,80.266968 149.999390,78.559464 150.000000,76.425095 
z"/>
<path fill="#B2B4B3" opacity="1.000000" stroke="none" 
	d="
M35.787659,66.132347 
	C41.671108,65.864220 47.395969,65.901222 53.590496,65.868378 
	C53.984375,66.194809 53.901127,66.939316 53.833851,66.937874 
	C47.764801,66.807938 41.696972,66.620781 35.787659,66.132347 
z"/>
<path fill="#B2B2B2" opacity="1.000000" stroke="none" 
	d="
M54.046677,64.020981 
	C48.351078,64.278862 42.612564,64.204567 36.402714,64.192261 
	C36.497307,63.807743 37.052013,62.991562 37.630978,62.973972 
	C41.756794,62.848618 45.887558,62.886288 50.827530,62.902672 
	C52.110588,62.886871 52.582874,62.840492 53.055157,62.794109 
	C53.371361,63.092342 53.687565,63.390575 54.046677,64.020981 
z"/>
<path fill="#E3E3E3" opacity="1.000000" stroke="none" 
	d="
M149.569336,81.981415 
	C150.439957,81.982368 150.881760,81.990265 151.654648,81.998268 
	C149.674545,85.333008 146.961731,84.608253 144.063080,82.388245 
	C145.704803,81.997345 147.422653,81.992851 149.569336,81.981415 
z"/>
<path fill="#FFF3F5" opacity="1.000000" stroke="none" 
	d="
M82.362297,81.011497 
	C83.177551,79.434982 84.279411,77.834564 85.672729,76.086952 
	C86.482086,76.292999 86.999992,76.646248 87.851562,77.282669 
	C88.185219,77.565842 88.390938,78.004967 88.228165,78.285629 
	C87.387695,79.370697 86.709984,80.175102 85.985397,80.993362 
	C85.938522,81.007210 85.851875,81.052490 85.851875,81.052490 
	C84.784218,81.030861 83.716560,81.009224 82.362297,81.011497 
z"/>
<path fill="#EDEEEC" opacity="1.000000" stroke="none" 
	d="
M86.000679,82.001221 
	C86.000679,82.001221 85.953545,81.522560 85.902710,81.287521 
	C85.851875,81.052490 85.938522,81.007210 86.428101,81.004387 
	C89.295654,81.072937 91.673637,81.144310 94.051620,81.215683 
	C94.053864,81.588707 94.056099,81.961739 93.611618,82.621689 
	C91.100349,82.892197 89.035789,82.875793 86.863724,82.663330 
	C86.550552,82.237099 86.298714,82.081749 86.000679,82.001221 
z"/>
<path fill="#FAEBEC" opacity="1.000000" stroke="none" 
	d="
M119.123062,37.730892 
	C119.004799,37.943100 118.567207,38.059128 118.346443,38.106369 
	C117.605827,37.782310 117.085976,37.411003 116.235580,36.999001 
	C117.016014,35.343315 118.126984,33.728325 119.526917,31.958904 
	C119.874474,32.614929 119.933067,33.425381 119.999573,34.963799 
	C120.017647,36.121338 120.027809,36.550919 120.037979,36.980495 
	C119.717468,37.078564 119.451920,37.257961 119.123062,37.730892 
z"/>
<path fill="#B2B3B2" opacity="1.000000" stroke="none" 
	d="
M94.346794,81.149033 
	C91.673637,81.144310 89.295654,81.072937 86.474976,80.990540 
	C86.709984,80.175102 87.387695,79.370697 88.361832,78.280853 
	C88.658264,77.995415 88.930458,77.979378 88.983887,78.378159 
	C91.349876,79.199615 93.662437,79.622299 95.975006,80.044983 
	C95.530663,80.390778 95.086319,80.736572 94.346794,81.149033 
z"/>
<path fill="#EDEEEC" opacity="1.000000" stroke="none" 
	d="
M95.982697,79.765289 
	C93.662437,79.622299 91.349876,79.199615 89.394714,78.414383 
	C91.827530,78.343269 93.902924,78.634697 95.978325,78.926125 
	C95.982346,79.112610 95.986374,79.299103 95.982697,79.765289 
z"/>
<path fill="#E3E3E3" opacity="1.000000" stroke="none" 
	d="
M132.041107,82.359543 
	C133.721497,81.989380 135.466507,81.995285 137.651489,82.012169 
	C136.435791,85.113663 134.366165,84.726082 132.041107,82.359543 
z"/>
<path fill="#FFF3F5" opacity="1.000000" stroke="none" 
	d="
M57.402565,97.592316 
	C60.727230,97.306702 64.386230,97.234955 68.499435,97.215271 
	C65.214729,97.446960 61.475819,97.626572 57.402565,97.592316 
z"/>
<path fill="#B2B4B3" opacity="1.000000" stroke="none" 
	d="
M96.238426,78.687576 
	C93.902924,78.634697 91.827530,78.343269 89.341293,78.015610 
	C88.930458,77.979378 88.658264,77.995415 88.524597,78.000191 
	C88.390938,78.004967 88.185219,77.565842 88.176598,77.323959 
	C90.944824,77.537727 93.721680,77.993378 96.238426,78.687576 
z"/>
<path fill="#EBEBEB" opacity="1.000000" stroke="none" 
	d="
M25.173519,52.180141 
	C25.324558,51.726307 25.475597,51.272476 26.185450,50.500549 
	C27.850830,50.250278 28.957401,50.318100 30.063971,50.385921 
	C30.326107,50.749043 30.588245,51.112160 30.523800,51.714050 
	C28.522652,52.028595 26.848085,52.104370 25.173519,52.180141 
z"/>
<path fill="#FAEBEC" opacity="1.000000" stroke="none" 
	d="
M103.242607,53.956459 
	C103.699730,52.689911 104.534470,51.440186 105.778595,50.313683 
	C106.457611,50.958828 106.727242,51.480743 106.990005,52.257236 
	C106.980240,52.681572 106.977348,52.851326 106.750946,53.125595 
	C106.255585,53.435741 106.063934,53.699635 105.747223,54.025288 
	C105.541969,54.028786 105.131470,54.020905 105.131470,54.020905 
	C104.627724,54.005028 104.123970,53.989151 103.242607,53.956459 
z"/>
<path fill="#B4B3B4" opacity="1.000000" stroke="none" 
	d="
M30.354017,50.243706 
	C28.957401,50.318100 27.850830,50.250278 26.346930,50.315903 
	C25.686745,49.979805 25.423891,49.510262 25.161037,49.040718 
	C27.140055,49.162544 29.119072,49.284367 31.098087,49.406193 
	C31.074823,49.542538 31.089939,49.705582 31.018440,49.808372 
	C30.931950,49.932720 30.772142,50.006073 30.354017,50.243706 
z"/>
<path fill="#EBEBEB" opacity="1.000000" stroke="none" 
	d="
M38.944000,79.807007 
	C38.948532,79.502602 38.945343,79.198280 39.338242,78.537537 
	C40.846764,78.260262 41.951477,78.339485 43.056190,78.418716 
	C43.070259,78.721107 43.072227,79.023575 42.653702,79.631561 
	C41.144871,79.893661 40.044437,79.850334 38.944000,79.807007 
z"/>
<path fill="#B2B2B2" opacity="1.000000" stroke="none" 
	d="
M43.435524,78.333252 
	C41.951477,78.339485 40.846764,78.260262 39.341866,78.309273 
	C41.051956,77.932625 43.162235,77.427750 45.698750,77.211090 
	C46.127327,77.679077 46.129665,77.858841 46.132000,78.038605 
	C45.359619,78.108337 44.587238,78.178062 43.435524,78.333252 
z"/>
<path fill="#B2B2B2" opacity="1.000000" stroke="none" 
	d="
M86.971237,82.859383 
	C89.035789,82.875793 91.100349,82.892197 93.609756,82.901466 
	C92.000046,83.259476 89.945465,83.624626 87.439713,83.698944 
	C86.982773,83.225197 86.977005,83.042290 86.971237,82.859383 
z"/>
<path fill="#B8B8B8" opacity="1.000000" stroke="none" 
	d="
M25.412596,52.434631 
	C26.848085,52.104370 28.522652,52.028595 30.620373,51.916180 
	C29.246243,52.149403 27.448957,52.419262 25.412596,52.434631 
z"/>
<path fill="#B2B2B2" opacity="1.000000" stroke="none" 
	d="
M38.763298,80.047577 
	C40.044437,79.850334 41.144871,79.893661 42.653019,79.858444 
	C41.568020,79.949303 40.075310,80.118721 38.763298,80.047577 
z"/>
<path fill="#FEEAEC" opacity="1.000000" stroke="none" 
	d="
M288.538239,68.925797 
	C288.546692,67.745941 288.908966,66.480545 289.528351,65.003525 
	C289.487671,66.141357 289.189880,67.490807 288.538239,68.925797 
z"/>
<path fill="#FEEAEC" opacity="1.000000" stroke="none" 
	d="
M304.151672,66.849060 
	C304.787567,67.724205 305.359406,69.010765 305.917908,70.650238 
	C305.298889,69.755592 304.693237,68.508034 304.151672,66.849060 
z"/>
<path fill="#EDEBEC" opacity="1.000000" stroke="none" 
	d="
M53.004547,62.503883 
	C52.582874,62.840492 52.110588,62.886871 51.287510,62.860249 
	C51.044060,62.062828 51.151405,61.338409 51.369877,59.864063 
	C52.171150,61.052570 52.562542,61.633110 53.004547,62.503883 
z"/>
<path fill="#FFF3F5" opacity="1.000000" stroke="none" 
	d="
M74.122253,91.886528 
	C74.309135,91.014191 74.861237,90.129295 75.702728,89.116058 
	C75.490570,89.949799 74.989021,90.911880 74.122253,91.886528 
z"/>
<path fill="#E2E2E1" opacity="1.000000" stroke="none" 
	d="
M105.302765,54.274742 
	C105.131470,54.020905 105.541969,54.028786 105.977081,53.925049 
	C106.704193,53.628021 106.891617,53.361279 106.974464,53.021084 
	C106.977348,52.851326 106.980240,52.681572 107.233452,52.241570 
	C107.483765,51.971321 107.971489,51.980167 107.971489,51.980167 
	C107.965546,52.166382 107.959610,52.352600 107.973679,52.818039 
	C107.153816,53.574371 106.313942,54.051476 105.302765,54.274742 
z"/>
<path fill="#F6EBEC" opacity="1.000000" stroke="none" 
	d="
M120.094131,31.781076 
	C120.318619,30.985352 120.869598,30.112965 121.706512,29.110609 
	C121.468506,29.888567 120.944565,30.796492 120.094131,31.781076 
z"/>
<path fill="#FEEAEC" opacity="1.000000" stroke="none" 
	d="
M286.378174,74.964523 
	C286.185181,74.434387 286.284943,73.868202 286.624390,73.128532 
	C286.799713,73.612854 286.735352,74.270668 286.378174,74.964523 
z"/>
<path fill="#D9D9D9" opacity="1.000000" stroke="none" 
	d="
M120.241669,36.889759 
	C120.027809,36.550919 120.017647,36.121338 120.005997,35.370106 
	C120.174057,35.034153 120.343597,35.019855 120.768280,35.015701 
	C121.012672,35.205017 121.001915,35.384193 120.983292,35.833397 
	C120.884872,36.400932 120.708183,36.632797 120.241669,36.889759 
z"/>
<path fill="#D8D8D8" opacity="1.000000" stroke="none" 
	d="
M86.863724,82.663330 
	C86.977005,83.042290 86.982773,83.225197 87.020233,83.680557 
	C86.708794,83.506104 86.365654,83.059196 86.011597,82.306763 
	C86.298714,82.081749 86.550552,82.237099 86.863724,82.663330 
z"/>
<path fill="#C6C6C6" opacity="1.000000" stroke="none" 
	d="
M153.941040,75.642151 
	C153.771423,75.931351 153.599854,75.934204 153.174957,75.886658 
	C152.935852,75.460754 152.950073,75.085251 152.952148,74.428131 
	C153.273041,74.549622 153.606079,74.952713 153.941040,75.642151 
z"/>
<path fill="#FAEBEC" opacity="1.000000" stroke="none" 
	d="
M94.469833,64.896591 
	C94.221626,64.659088 94.330444,64.406761 94.820724,64.163963 
	C95.000008,64.385857 94.874893,64.621941 94.469833,64.896591 
z"/>
<path fill="#FAEBEC" opacity="1.000000" stroke="none" 
	d="
M98.324005,59.911285 
	C98.241936,59.731178 98.370949,59.431301 98.740150,59.040863 
	C98.943321,59.289680 98.794907,59.570084 98.324005,59.911285 
z"/>
<path fill="#FFF3F5" opacity="1.000000" stroke="none" 
	d="
M71.465515,94.876556 
	C71.226639,94.649429 71.333549,94.399033 71.820404,94.161423 
	C71.976295,94.371696 71.846619,94.598053 71.465515,94.876556 
z"/>
<path fill="#FEE9EB" opacity="1.000000" stroke="none" 
	d="
M118.995911,13.202066 
	C119.075966,13.438369 118.867424,13.752286 118.390228,14.170589 
	C118.316818,13.943213 118.512062,13.611447 118.995911,13.202066 
z"/>
<path fill="#F6EBEC" opacity="1.000000" stroke="none" 
	d="
M131.314880,16.907530 
	C131.224503,16.723612 131.347809,16.410280 131.714966,15.998165 
	C131.935806,16.251253 131.792404,16.544165 131.314880,16.907530 
z"/>
<path fill="#FFF3F5" opacity="1.000000" stroke="none" 
	d="
M78.393768,85.872856 
	C78.134613,85.627487 78.252319,85.356087 78.781960,85.094299 
	C78.952202,85.319862 78.811111,85.567497 78.393768,85.872856 
z"/>
<path fill="#FAEBEC" opacity="1.000000" stroke="none" 
	d="
M100.545990,56.896439 
	C100.335205,56.684887 100.437187,56.459602 100.878555,56.249126 
	C101.020363,56.444294 100.900635,56.650547 100.545990,56.896439 
z"/>
<path fill="#FFF3F5" opacity="1.000000" stroke="none" 
	d="
M81.461197,81.875443 
	C81.231567,81.648552 81.343521,81.398499 81.828018,81.157776 
	C81.980064,81.366501 81.847473,81.594902 81.461197,81.875443 
z"/>
<path fill="#FAEBEC" opacity="1.000000" stroke="none" 
	d="
M101.368599,55.941956 
	C101.125458,55.692722 101.254395,55.408432 101.781540,55.116936 
	C101.969315,55.356571 101.822960,55.622295 101.368599,55.941956 
z"/>
<path fill="#FAEBEC" opacity="1.000000" stroke="none" 
	d="
M91.402206,68.885826 
	C91.131790,68.635300 91.248535,68.361832 91.779236,68.090302 
	C91.970337,68.321480 91.835724,68.578369 91.402206,68.885826 
z"/>
<path fill="#FEEAEC" opacity="1.000000" stroke="none" 
	d="
M287.535156,70.852249 
	C287.235382,70.652931 287.301849,70.370461 287.755066,70.018051 
	C287.995392,70.213173 287.915253,70.486832 287.535156,70.852249 
z"/>
<path fill="#E7E9E9" opacity="1.000000" stroke="none" 
	d="
M46.293121,77.935852 
	C46.129665,77.858841 46.127327,77.679077 46.126373,77.229462 
	C46.236584,77.250786 46.345413,77.541939 46.293121,77.935852 
z"/>
<path fill="#FEEAEC" opacity="1.000000" stroke="none" 
	d="
M306.125244,71.968269 
	C306.338226,71.970612 306.548889,72.222649 306.740906,72.729675 
	C306.406555,72.819748 306.206757,72.564186 306.125244,71.968269 
z"/>
<path fill="#FEE9EB" opacity="1.000000" stroke="none" 
	d="
M116.623001,16.113110 
	C116.892876,16.366623 116.772736,16.648363 116.238174,16.935287 
	C116.036819,16.697252 116.173225,16.430872 116.623001,16.113110 
z"/>
<path fill="#F6EBEC" opacity="1.000000" stroke="none" 
	d="
M130.506653,17.892662 
	C130.285385,17.670095 130.395767,17.433233 130.855957,17.198030 
	C131.015366,17.400908 130.892883,17.627134 130.506653,17.892662 
z"/>
<path fill="#FEEAEC" opacity="1.000000" stroke="none" 
	d="
M306.974762,74.253967 
	C307.211243,74.170433 307.365448,74.326660 307.371918,74.733139 
	C307.143616,74.771912 307.033051,74.608688 306.974762,74.253967 
z"/>
<path fill="#FFFDFD" opacity="1.000000" stroke="none" 
	d="
M108.299126,51.952301 
	C107.971489,51.980167 107.483765,51.971321 107.240326,51.986992 
	C106.727242,51.480743 106.457611,50.958828 106.068924,50.167938 
	C106.246841,49.388191 106.543808,48.877419 107.252792,48.086929 
	C107.881012,47.625984 108.007446,47.395504 108.044106,47.115761 
	C108.044106,47.115761 108.021606,47.041855 108.281685,46.905262 
	C108.695663,46.467701 108.849564,46.166733 109.003464,45.865761 
	C109.456299,45.628117 109.909126,45.390469 110.627457,45.488289 
	C110.998703,46.253067 111.104446,46.682384 111.205521,47.445427 
	C111.148239,47.948059 111.095627,48.116974 110.995590,48.545971 
	C110.648865,49.079121 110.349556,49.352184 109.976074,49.927570 
	C109.915367,50.573269 109.928841,50.916641 109.936600,51.517235 
	C109.496185,51.824451 109.061478,51.874447 108.299126,51.952301 
z"/>
<path fill="#FAEBEC" opacity="1.000000" stroke="none" 
	d="
M108.758385,45.975746 
	C108.849564,46.166733 108.695663,46.467701 108.319977,46.900208 
	C108.236565,46.716408 108.374931,46.401070 108.758385,45.975746 
z"/>
<path fill="#FAEBEC" opacity="1.000000" stroke="none" 
	d="
M107.842834,47.183693 
	C108.007446,47.395504 107.881012,47.625984 107.484390,47.894650 
	C107.253815,47.663414 107.366348,47.419926 107.842834,47.183693 
z"/>
<path fill="#FFFDFD" opacity="1.000000" stroke="none" 
	d="
M106.750946,53.125595 
	C106.891617,53.361279 106.704193,53.628021 106.182327,53.921551 
	C106.063934,53.699635 106.255585,53.435741 106.750946,53.125595 
z"/>
</svg>